<?xml version="1.0" encoding="utf-8"?>
<!-- Generator: Adobe Illustrator 24.0.2, SVG Export Plug-In . SVG Version: 6.00 Build 0)  -->
<svg version="1.1" id="Layer_1" xmlns="http://www.w3.org/2000/svg" xmlns:xlink="http://www.w3.org/1999/xlink" x="0px" y="0px"
	 viewBox="0 0 376.2 237.4" style="enable-background:new 0 0 376.2 237.4;" xml:space="preserve">
<style type="text/css">
	.st0{fill:#464547;}
	.st1{fill:#B8BABC;}
	.st2{fill:#3D3D3E;}
	.st3{fill:#1C1B1C;}
	.st4{fill:#474646;}
	.st5{fill:#2E2E2F;}
</style>
<polyline class="st0" points="251.9,84 229.6,110.6 233.6,146.3 286.7,82.2 "/>
<polygon class="st1" points="134.3,71.2 133.3,34.7 80.9,93.2 113.4,94.3 "/>
<polyline class="st2" points="113.6,94.1 128.9,110.8 129,110.8 128.5,149.7 128.4,149.6 80.7,93.2 "/>
<polyline class="st3" points="129,110.9 199.3,32.4 217.3,50.5 128.6,149.7 "/>
<polyline class="st1" points="199.3,32.4 236,31.9 286.7,82.3 251.9,84.1 218,51.1 "/>
<path class="st4" d="M62.2,209H36v-43.8h26.3v6.5H43.3v11.5h16.8v6.5H43.3v12.9h18.9V209z"/>
<path class="st4" d="M64.4,209l12.1-22.4l-11.4-21.4h8.4l5.5,11c0.7,1.4,1.3,2.7,1.8,4c0.4-1.3,1-2.6,1.7-4l5.6-11h8.2l-11.4,21.2
	L97,209h-8.4l-6.2-12.1c-0.7-1.4-1.3-2.7-1.9-4.1c-0.5,1.4-1.1,2.8-1.8,4.1L72.5,209H64.4z"/>
<path class="st4" d="M98.3,209v-43.8h14.6c2.9,0,5.4,0.6,7.6,1.7c2.2,1.1,3.9,2.7,5.1,4.7s1.8,4.4,1.8,7.1s-0.6,5-1.8,7.1
	c-1.2,2-2.9,3.6-5.1,4.7c-2.2,1.1-4.7,1.7-7.6,1.7h-7.1V209H98.3z M112.9,185.5c2.1,0,3.8-0.6,5-1.9c1.3-1.2,1.9-2.9,1.9-4.9
	c0-2.1-0.6-3.7-1.9-5c-1.2-1.2-2.9-1.8-5-1.8h-7.1v13.6H112.9z"/>
<path class="st4" d="M131.2,210v-43.8h13.9c2.9,0,5.4,0.5,7.6,1.6c2.2,1.1,3.9,2.6,5,4.6s1.8,4.2,1.8,6.8c0,2.9-0.7,5.4-2.2,7.6
	c-1.4,2.2-3.4,3.8-5.9,4.7l8.7,18.5h-8.4l-7.6-17.4h-5.3V210H131.2z M145.1,186.1c2.1,0,3.7-0.6,5-1.8c1.2-1.2,1.8-2.8,1.8-4.8
	c0-2.1-0.6-3.7-1.8-4.9c-1.2-1.2-2.9-1.8-5-1.8h-6.4v13.3H145.1z"/>
<path class="st4" d="M189.2,210H163v-43.8h26.3v6.5h-18.9v11.5h16.8v6.5h-16.8v12.9h18.9V210z"/>
<path class="st4" d="M196.1,206.3c-2.6-2.2-4-5.2-4-9h7.5c0,1.8,0.6,3.2,2,4.3c1.3,1,3.1,1.6,5.3,1.6c2.2,0,3.8-0.5,5.1-1.5
	c1.2-1,1.8-2.4,1.8-4.2c0-1.5-0.4-2.8-1.3-3.8c-0.9-1.1-2.1-1.8-3.7-2.3l-5-1.4c-3.4-0.9-6-2.5-7.9-4.7c-1.9-2.3-2.8-5-2.8-8.3
	c0-3.7,1.2-6.7,3.7-8.9c2.5-2.2,5.8-3.3,10-3.3c4.2,0,7.5,1.1,10.1,3.3c2.5,2.2,3.8,5.1,3.8,8.8h-7.5c0-1.7-0.6-3.1-1.7-4.1
	c-1.1-1-2.7-1.5-4.7-1.5c-2,0-3.5,0.5-4.6,1.4c-1.1,0.9-1.6,2.2-1.6,3.9c0,1.5,0.4,2.8,1.3,3.9c0.8,1.1,2,1.8,3.5,2.2l5.2,1.4
	c3.4,0.9,6.1,2.5,8,4.7c1.9,2.2,2.8,5,2.8,8.3c0,2.5-0.6,4.7-1.8,6.6c-1.2,1.9-2.9,3.4-5.1,4.4c-2.2,1-4.7,1.6-7.6,1.6
	C202.3,209.6,198.8,208.5,196.1,206.3z"/>
<path class="st4" d="M232.1,206.3c-2.6-2.2-4-5.2-4-9h7.5c0,1.8,0.6,3.2,2,4.3c1.3,1,3.1,1.6,5.3,1.6c2.2,0,3.8-0.5,5.1-1.5
	c1.2-1,1.8-2.4,1.8-4.2c0-1.5-0.4-2.8-1.3-3.8c-0.9-1.1-2.1-1.8-3.7-2.3l-5-1.4c-3.4-0.9-6-2.5-7.9-4.7c-1.9-2.3-2.8-5-2.8-8.3
	c0-3.7,1.2-6.7,3.7-8.9c2.5-2.2,5.8-3.3,10-3.3c4.2,0,7.5,1.1,10.1,3.3c2.5,2.2,3.8,5.1,3.8,8.8h-7.5c0-1.7-0.6-3.1-1.7-4.1
	c-1.1-1-2.7-1.5-4.7-1.5c-2,0-3.5,0.5-4.6,1.4c-1.1,0.9-1.6,2.2-1.6,3.9c0,1.5,0.4,2.8,1.3,3.9c0.8,1.1,2,1.8,3.5,2.2l5.2,1.4
	c3.4,0.9,6.1,2.5,8,4.7c1.9,2.2,2.8,5,2.8,8.3c0,2.5-0.6,4.7-1.8,6.6c-1.2,1.9-2.9,3.4-5.1,4.4c-2.2,1-4.7,1.6-7.6,1.6
	C238.3,209.6,234.8,208.5,232.1,206.3z"/>
<path class="st5" d="M264.2,198.2v-32.4h9.6c2.2,0,4.1,0.4,5.7,1.2c1.6,0.8,2.9,2,3.8,3.6c0.9,1.5,1.3,3.3,1.3,5.3V188
	c0,2-0.4,3.8-1.3,5.3c-0.9,1.5-2.1,2.7-3.8,3.6c-1.6,0.8-3.5,1.3-5.7,1.3H264.2z M273.8,193.1c1.6,0,2.9-0.5,3.8-1.4
	c0.9-0.9,1.4-2.1,1.4-3.7v-12.1c0-1.5-0.5-2.8-1.4-3.7c-0.9-0.9-2.2-1.4-3.8-1.4h-4.1v22.2H273.8z"/>
<path class="st5" d="M307,189.3c0,1.9-0.4,3.5-1.3,4.9c-0.9,1.4-2.1,2.5-3.6,3.3c-1.6,0.8-3.4,1.2-5.5,1.2c-2.1,0-3.9-0.4-5.5-1.2
	c-1.6-0.8-2.8-1.9-3.6-3.3c-0.9-1.4-1.3-3-1.3-4.9h5.6c0,1.5,0.4,2.6,1.3,3.4c0.8,0.8,2,1.2,3.6,1.2c1.5,0,2.7-0.4,3.6-1.2
	c0.9-0.8,1.3-2,1.2-3.4v-2.5c0-1.5-0.4-2.6-1.2-3.4c-0.8-0.8-2-1.2-3.6-1.2h-3.6v-5l7.2-6.6h-12.5v-4.8h18.1v5l-7.3,6.7
	c2.6,0.3,4.7,1.3,6.2,3c1.5,1.6,2.3,3.8,2.3,6.3L307,189.3z"/>
<path class="st5" d="M315.9,198.2l-8.2-32.4h5.8l4.9,21.1c0.4,1.8,0.9,3.9,1.3,6.3c0.4-2.3,0.7-4.4,1.2-6.3l4.8-21.1h5.6l-8.2,32.4
	H315.9z"/>
<g>
	<path class="st5" d="M264.1,211v-8.8h2.6c0.6,0,1.1,0.1,1.5,0.3c0.4,0.2,0.8,0.5,1,1c0.2,0.4,0.4,0.9,0.4,1.4v3.3
		c0,0.5-0.1,1-0.4,1.4c-0.2,0.4-0.6,0.7-1,1c-0.4,0.2-1,0.3-1.5,0.3H264.1z M266.7,209.6c0.4,0,0.8-0.1,1-0.4s0.4-0.6,0.4-1V205
		c0-0.4-0.1-0.7-0.4-1s-0.6-0.4-1-0.4h-1.1v6H266.7z"/>
	<path class="st5" d="M276.7,211h-5.3v-8.8h5.3v1.3h-3.8v2.3h3.4v1.3h-3.4v2.6h3.8V211z"/>
	<path class="st5" d="M280.2,211l-2.2-8.8h1.6l1.3,5.7c0.1,0.5,0.2,1.1,0.3,1.7c0.1-0.6,0.2-1.2,0.3-1.7l1.3-5.7h1.5l-2.2,8.8H280.2
		z"/>
	<path class="st5" d="M291.1,211h-5.3v-8.8h5.3v1.3h-3.8v2.3h3.4v1.3h-3.4v2.6h3.8V211z"/>
	<path class="st5" d="M298.4,211h-5.2v-8.8h1.5v7.4h3.7V211z"/>
	<path class="st5" d="M300.8,210.4c-0.5-0.5-0.7-1.1-0.7-1.9v-3.8c0-0.8,0.2-1.4,0.7-1.9c0.5-0.5,1.2-0.7,2-0.7c0.8,0,1.5,0.2,2,0.7
		c0.5,0.5,0.7,1.1,0.7,1.9v3.8c0,0.8-0.2,1.4-0.7,1.9c-0.5,0.5-1.2,0.7-2,0.7C301.9,211.1,301.3,210.9,300.8,210.4z M303.7,209.5
		c0.2-0.2,0.3-0.5,0.3-1v-3.8c0-0.4-0.1-0.7-0.3-1c-0.2-0.2-0.5-0.3-0.9-0.3c-0.4,0-0.7,0.1-0.9,0.3c-0.2,0.2-0.3,0.5-0.3,1v3.8
		c0,0.4,0.1,0.7,0.3,1c0.2,0.2,0.5,0.3,0.9,0.3C303.2,209.8,303.5,209.7,303.7,209.5z"/>
	<path class="st5" d="M307.3,211v-8.8h2.9c0.6,0,1.1,0.1,1.5,0.3c0.4,0.2,0.8,0.5,1,0.9c0.2,0.4,0.4,0.9,0.4,1.4
		c0,0.5-0.1,1-0.4,1.4c-0.2,0.4-0.6,0.7-1,0.9c-0.4,0.2-0.9,0.3-1.5,0.3h-1.4v3.4H307.3z M310.2,206.3c0.4,0,0.8-0.1,1-0.4
		s0.4-0.6,0.4-1c0-0.4-0.1-0.7-0.4-1s-0.6-0.4-1-0.4h-1.4v2.7H310.2z"/>
	<path class="st5" d="M314.2,211v-8.8h1.8l0.9,2.8c0.1,0.5,0.3,0.9,0.3,1.3c0.1-0.4,0.2-0.8,0.3-1.3l0.8-2.8h1.8v8.8h-1.4v-2.7
		c0-0.7,0-1.6,0.1-2.5c0.1-0.9,0.2-1.8,0.2-2.7l-1.2,4.1h-1.4l-1.2-4.1c0.1,0.8,0.2,1.7,0.3,2.6c0.1,0.9,0.1,1.8,0.1,2.6v2.7H314.2z
		"/>
	<path class="st5" d="M327.1,211h-5.3v-8.8h5.3v1.3h-3.8v2.3h3.4v1.3h-3.4v2.6h3.8V211z"/>
	<path class="st5" d="M328.8,211v-8.8h1.8l2.4,7.1c-0.1-1.2-0.2-2.2-0.2-2.9v-4.2h1.4v8.8h-1.8l-2.4-7.1c0.1,1.1,0.1,2.1,0.1,2.8
		v4.3H328.8z"/>
	<path class="st5" d="M339.5,211H338v-7.4h-2.3v-1.4h6.1v1.4h-2.3V211z"/>
</g>
</svg>
