<?xml version="1.0" encoding="utf-8"?>
<!-- Generator: Adobe Illustrator 24.0.2, SVG Export Plug-In . SVG Version: 6.00 Build 0)  -->
<svg version="1.1" id="Layer_1" xmlns="http://www.w3.org/2000/svg" xmlns:xlink="http://www.w3.org/1999/xlink" x="0px" y="0px"
	 viewBox="0 0 549.2 321.7" style="enable-background:new 0 0 549.2 321.7;" xml:space="preserve">
<style type="text/css">
	.st0{fill:#212121;}
	.st1{enable-background:new    ;}
</style>
<path class="st0" d="M137.7,284.4l-70.8-1.2L51.8,126.7l255-71.8l2,11.8L80.3,144.3l7.3,69.2l48.9-2.1l0.7,24.3l-46.9,1.1l2.5,23
	l44.3-0.4L137.7,284.4z"/>
<path class="st0" d="M297.2,35.1c0,0,3.8,8.5,7.6,15.8c2.6,4.9,4.7,12.8,4.9,20.1c0.2,10.3-2.5,13.1,3.3,28.4
	c2.5,6.8,4.8,8.6,4.8,8.6c6.3,6.2,59.1-23.3,56.9-34c-0.6-3.1-1.6-3.8-4.5-7c-12.2-13.6-14.5-14-27.4-20.2c-8.3-4-19.4-21.3-21-25.2
	C311.1,24.1,297.2,35.1,297.2,35.1z"/>
<path class="st0" d="M141.3,284.3l21.1-39l-19.8-37.1h14.6l9.6,19.1c1.2,2.4,2.2,4.8,3.1,7c0.8-2.2,1.8-4.6,3-7l9.7-19.1h14.2
	L177,245l21.1,39.3h-14.6l-10.7-21.1c-1.2-2.4-2.3-4.8-3.2-7.2c-0.9,2.4-1.9,4.8-3.1,7.2l-10.9,21.1L141.3,284.3L141.3,284.3z"/>
<path class="st0" d="M200.8,284.3v-76.1h25.4c5,0,9.4,1,13.3,2.9c3.8,1.9,6.8,4.7,8.9,8.2s3.1,7.6,3.1,12.3s-1,8.8-3.1,12.3
	c-2.1,3.6-5,6.3-8.9,8.2c-3.8,1.9-8.2,2.9-13.3,2.9h-12.3v29.2H200.8z M226.1,243.4c3.6,0,6.5-1.1,8.7-3.2s3.3-5,3.3-8.6
	c0-3.6-1.1-6.5-3.2-8.6c-2.2-2.1-5.1-3.2-8.8-3.2h-12.3v23.6L226.1,243.4L226.1,243.4z"/>
<path class="st0" d="M253.6,284.3v-76.1h24.1c5,0,9.4,0.9,13.2,2.8c3.8,1.9,6.7,4.5,8.8,7.9c2,3.4,3.1,7.4,3.1,11.9
	c0,5-1.3,9.4-3.8,13.3c-2.5,3.8-6,6.5-10.3,8.1l15.1,32.1h-14.6L276,254.1h-9.3v30.3L253.6,284.3L253.6,284.3z M277.7,242.7
	c3.6,0,6.5-1,8.6-3.1c2.1-2.1,3.2-4.9,3.2-8.4c0-3.6-1.1-6.5-3.2-8.6c-2.1-2.1-5-3.1-8.6-3.1h-11.1v23.2H277.7z"/>
<path class="st0" d="M352.9,284.3h-45.7v-76.1h45.7v11.3H320v19.9h29.2v11.3H320v22.4h32.9V284.3z"/>
<path class="st0" d="M361.8,279.6c-4.6-3.9-6.9-9.1-7-15.7h13c0,3.1,1.1,5.6,3.4,7.4s5.3,2.7,9.2,2.7c3.8,0,6.7-0.9,8.8-2.7
	s3.2-4.2,3.2-7.3c0-2.6-0.8-4.8-2.3-6.7c-1.5-1.9-3.6-3.2-6.4-4l-8.8-2.4c-5.9-1.5-10.5-4.3-13.8-8.2s-4.9-8.8-4.9-14.4
	c0-6.5,2.1-11.6,6.5-15.5c4.3-3.9,10.1-5.8,17.4-5.8c7.3,0,13.1,1.9,17.5,5.7c4.4,3.8,6.5,8.9,6.6,15.3h-13c0-3-1-5.3-2.9-7
	s-4.7-2.6-8.2-2.6c-3.4,0-6,0.8-7.9,2.4c-1.9,1.6-2.8,3.9-2.8,6.8c0,2.6,0.7,4.9,2.2,6.8s3.5,3.2,6.1,3.9l9.1,2.5
	c6,1.6,10.6,4.4,13.8,8.2c3.2,3.9,4.9,8.7,4.9,14.5c0,4.3-1,8.1-3.1,11.4c-2.1,3.3-5,5.9-8.8,7.7c-3.8,1.8-8.2,2.7-13.2,2.7
	C372.6,285.4,366.4,283.4,361.8,279.6z"/>
<path class="st0" d="M414.1,279.6c-4.6-3.9-6.9-9.1-7-15.7h13c0,3.1,1.1,5.6,3.4,7.4s5.3,2.7,9.2,2.7c3.8,0,6.7-0.9,8.8-2.7
	s3.2-4.2,3.2-7.3c0-2.6-0.8-4.8-2.3-6.7c-1.5-1.9-3.6-3.2-6.4-4l-8.8-2.4c-5.9-1.5-10.5-4.3-13.8-8.2s-4.9-8.8-4.9-14.4
	c0-6.5,2.1-11.6,6.5-15.5c4.3-3.9,10.1-5.8,17.4-5.8c7.3,0,13.1,1.9,17.5,5.7c4.4,3.8,6.5,8.9,6.6,15.3h-13c0-3-1-5.3-2.9-7
	s-4.7-2.6-8.2-2.6c-3.4,0-6,0.8-7.9,2.4c-1.9,1.6-2.8,3.9-2.8,6.8c0,2.6,0.7,4.9,2.2,6.8s3.5,3.2,6.1,3.9l9.1,2.5
	c6,1.6,10.6,4.4,13.8,8.2c3.2,3.9,4.9,8.7,4.9,14.5c0,4.3-1,8.1-3.1,11.4c-2.1,3.3-5,5.9-8.8,7.7c-3.8,1.8-8.2,2.7-13.2,2.7
	C424.9,285.4,418.7,283.4,414.1,279.6z"/>
<g class="st1">
	<path class="st0" d="M133.3,198.5l-2.1-20.4h3l1.2,14.3c0.1,0.9,0.2,2.1,0.2,3.8l0.4-3.8l1.7-14.3h2.9l1.6,14.3l0.4,3.8
		c0.1-1.7,0.1-2.9,0.2-3.8l1.2-14.3h3l-2.2,20.4H141l-1.5-14.3c-0.1-0.9-0.2-2.2-0.3-3.9c-0.1,1.7-0.2,3-0.3,3.9l-1.7,14.3H133.3z"
		/>
	<path class="st0" d="M162.3,198.5H150V178h12.3v3h-8.8v5.3h7.8v3h-7.8v6h8.8V198.5z"/>
	<path class="st0" d="M178.5,189.3c0.8,0.9,1.2,2,1.2,3.4c0,1.8-0.6,3.2-1.8,4.2c-1.2,1.1-2.8,1.6-4.8,1.6h-6.6V178h6.3
		c2,0,3.5,0.5,4.7,1.4c1.2,0.9,1.7,2.2,1.7,3.9c0,1.2-0.4,2.2-1.1,3c-0.7,0.8-1.6,1.3-2.7,1.5C176.7,187.9,177.7,188.4,178.5,189.3z
		 M169.9,180.9v5.5h2.8c0.9,0,1.6-0.2,2.2-0.7c0.5-0.5,0.8-1.2,0.8-2c0-0.9-0.3-1.5-0.8-2c-0.5-0.5-1.3-0.7-2.2-0.7H169.9z
		 M172.9,195.6c1,0,1.8-0.3,2.4-0.8c0.6-0.5,0.9-1.3,0.9-2.3c0-1-0.3-1.7-0.9-2.3c-0.6-0.6-1.4-0.9-2.4-0.9h-2.9v6.3H172.9z"/>
	<path class="st0" d="M203,198.5h-3.5l-1.3-1.8c-1.3,1.4-2.9,2.1-4.8,2.1c-1.7,0-3-0.5-3.9-1.4c-0.9-0.9-1.4-2.2-1.4-3.9v-2.6
		c0-1.1,0.2-2,0.7-2.8c0.5-0.8,1.2-1.3,2.1-1.6c-0.9-1.4-1.4-2.7-1.4-4c0-1.4,0.5-2.5,1.5-3.4c1-0.9,2.3-1.3,3.9-1.3
		c1.7,0,3,0.5,4,1.4c1,0.9,1.5,2.2,1.5,3.7h-3.2c0-0.7-0.2-1.2-0.6-1.6c-0.4-0.4-1-0.6-1.7-0.6c-0.7,0-1.2,0.2-1.6,0.6
		s-0.6,0.9-0.6,1.5c0,0.8,0.4,1.9,1.3,3.1l3.9,5.5l1.5-3h3.4l-3,5.7L203,198.5z M195.3,195.4c0.5-0.3,0.9-0.7,1.2-1.2l-3.9-5.5
		c-0.7,0.3-1.1,1-1.1,2.1v2.6c0,0.7,0.2,1.3,0.6,1.8c0.4,0.4,1,0.6,1.7,0.6C194.3,195.9,194.8,195.7,195.3,195.4z"/>
	<path class="st0" d="M215.1,198.5h-3.6l5.2-20.4h4.5l5.2,20.4h-3.6l-1.1-5h-5.4L215.1,198.5z M216.9,190.7h4.1l-1.2-5.5
		c-0.5-2.1-0.7-3.5-0.8-4.1c-0.1,0.6-0.4,2-0.8,4.1L216.9,190.7z"/>
	<path class="st0" d="M229.5,198.5V178h6.8c1.3,0,2.5,0.3,3.6,0.8c1,0.5,1.8,1.3,2.4,2.2s0.8,2.1,0.8,3.3c0,1.3-0.3,2.4-0.8,3.3
		s-1.4,1.7-2.4,2.2c-1,0.5-2.2,0.8-3.6,0.8H233v7.8H229.5z M236.3,187.5c1,0,1.8-0.3,2.3-0.9c0.6-0.6,0.9-1.3,0.9-2.3
		c0-1-0.3-1.7-0.9-2.3c-0.6-0.6-1.4-0.9-2.4-0.9H233v6.3H236.3z"/>
	<path class="st0" d="M246.3,198.5V178h6.8c1.3,0,2.5,0.3,3.6,0.8c1,0.5,1.8,1.3,2.4,2.2s0.8,2.1,0.8,3.3c0,1.3-0.3,2.4-0.8,3.3
		s-1.4,1.7-2.4,2.2c-1,0.5-2.2,0.8-3.6,0.8h-3.3v7.8H246.3z M253.1,187.5c1,0,1.8-0.3,2.3-0.9c0.6-0.6,0.9-1.3,0.9-2.3
		c0-1-0.3-1.7-0.9-2.3c-0.6-0.6-1.4-0.9-2.4-0.9h-3.3v6.3H253.1z"/>
	<path class="st0" d="M268.8,198.5V178h6.1c1.4,0,2.6,0.3,3.6,0.8c1,0.5,1.8,1.3,2.4,2.2c0.6,1,0.8,2.1,0.8,3.4v7.6
		c0,1.3-0.3,2.4-0.8,3.4c-0.6,1-1.4,1.7-2.4,2.3s-2.2,0.8-3.6,0.8H268.8z M274.9,195.2c1,0,1.8-0.3,2.4-0.9c0.6-0.6,0.9-1.4,0.9-2.3
		v-7.6c0-1-0.3-1.7-0.9-2.3c-0.6-0.6-1.4-0.9-2.4-0.9h-2.6v14H274.9z"/>
	<path class="st0" d="M298.3,198.5H286V178h12.3v3h-8.8v5.3h7.8v3h-7.8v6h8.8V198.5z"/>
	<path class="st0" d="M306.5,198.5l-5.2-20.4h3.6l3.1,13.3c0.3,1.2,0.6,2.5,0.8,3.9c0.2-1.5,0.5-2.8,0.7-3.9l3.1-13.3h3.5l-5.2,20.4
		H306.5z"/>
	<path class="st0" d="M331.9,198.5h-12.3V178h12.3v3H323v5.3h7.8v3H323v6h8.8V198.5z"/>
	<path class="st0" d="M349,198.5h-12.2V178h3.5v17.2h8.7V198.5z"/>
	<path class="st0" d="M354.5,197.1c-1.1-1.1-1.7-2.6-1.7-4.4v-8.9c0-1.8,0.6-3.3,1.7-4.4s2.7-1.6,4.7-1.6s3.5,0.5,4.7,1.6
		c1.1,1.1,1.7,2.6,1.7,4.4v8.9c0,1.8-0.6,3.3-1.7,4.4c-1.1,1.1-2.7,1.6-4.7,1.6S355.6,198.2,354.5,197.1z M361.3,194.9
		c0.5-0.5,0.7-1.3,0.7-2.2v-8.9c0-1-0.2-1.7-0.7-2.2c-0.5-0.5-1.2-0.8-2.2-0.8s-1.7,0.3-2.2,0.8c-0.5,0.5-0.7,1.3-0.7,2.2v8.9
		c0,1,0.2,1.7,0.7,2.2c0.5,0.5,1.2,0.8,2.1,0.8C360.1,195.7,360.8,195.4,361.3,194.9z"/>
	<path class="st0" d="M369.7,198.5V178h6.8c1.3,0,2.5,0.3,3.6,0.8c1,0.5,1.8,1.3,2.4,2.2c0.6,1,0.8,2.1,0.8,3.3
		c0,1.3-0.3,2.4-0.8,3.3c-0.6,1-1.4,1.7-2.4,2.2c-1,0.5-2.2,0.8-3.6,0.8h-3.3v7.8H369.7z M376.5,187.5c1,0,1.8-0.3,2.3-0.9
		c0.6-0.6,0.9-1.3,0.9-2.3c0-1-0.3-1.7-0.9-2.3c-0.6-0.6-1.4-0.9-2.4-0.9h-3.3v6.3H376.5z"/>
	<path class="st0" d="M385.9,198.5V178h4.1l2,6.5c0.3,1.1,0.6,2.1,0.8,2.9c0.1-0.8,0.4-1.8,0.7-3l1.9-6.5h4.1v20.4h-3.3v-6.4
		c0-1.7,0.1-3.7,0.2-5.9c0.2-2.2,0.3-4.3,0.6-6.2l-2.7,9.7h-3.2l-2.8-9.7c0.2,1.9,0.4,3.9,0.6,6.1c0.2,2.2,0.2,4.2,0.2,6v6.4H385.9z
		"/>
	<path class="st0" d="M415.9,198.5h-12.3V178h12.3v3H407v5.3h7.8v3H407v6h8.8V198.5z"/>
	<path class="st0" d="M420,198.5V178h4.3l5.7,16.5c-0.3-2.8-0.4-5.1-0.4-6.8V178h3.2v20.4h-4.3l-5.6-16.5c0.2,2.6,0.3,4.8,0.3,6.5
		v10H420z"/>
	<path class="st0" d="M444.9,198.5h-3.5v-17.2H436V178h14.2v3.2h-5.3V198.5z"/>
</g>
</svg>
